<?xml version="1.0" standalone="no"?>
<!DOCTYPE svg PUBLIC "-//W3C//DTD SVG 20010904//EN"
 "http://www.w3.org/TR/2001/REC-SVG-20010904/DTD/svg10.dtd">
<svg version="1.0" xmlns="http://www.w3.org/2000/svg"
 width="700.000000pt" height="700.000000pt" viewBox="0 0 700.000000 700.000000"
 preserveAspectRatio="xMidYMid meet">
<metadata>
Created by potrace 1.14, written by Peter Selinger 2001-2017
</metadata>
<g transform="translate(0.000000,700.000000) scale(0.100000,-0.100000)"
fill="#000000" stroke="none">
<path d="M222 6981 c-61 -21 -114 -61 -159 -120 -68 -89 -63 190 -61 -3381 l3
-3235 28 -56 c32 -66 99 -132 165 -162 l47 -22 3255 0 3255 0 56 28 c66 32
132 99 162 165 l22 47 0 3255 0 3255 -22 47 c-30 66 -96 133 -162 165 l-56 28
-3240 2 c-3118 2 -3242 2 -3293 -16z m1222 -1398 c3 -10 163 -702 356 -1538
314 -1359 355 -1548 390 -1785 22 -146 43 -278 48 -295 6 -23 19 21 69 235 37
162 231 863 498 1800 239 844 440 1550 446 1568 l11 32 250 -2 251 -3 436
-1580 c240 -869 464 -1696 496 -1837 33 -141 61 -256 62 -254 2 1 25 144 53
317 44 274 94 508 394 1832 189 835 345 1520 348 1522 3 3 138 4 300 3 l294
-3 -513 -2120 c-282 -1166 -526 -2180 -544 -2253 l-31 -132 -271 2 -272 3
-457 1615 c-406 1436 -482 1716 -528 1943 -6 32 -14 57 -16 54 -2 -2 -18 -73
-35 -158 -21 -103 -186 -685 -505 -1774 -261 -891 -479 -1635 -485 -1652 l-11
-33 -268 0 c-247 0 -269 1 -274 18 -6 20 -1075 4425 -1083 4465 l-5 27 295 0
c273 0 296 -1 301 -17z"/>
</g>
</svg>
